mtllib CandyBar.mtl
o CandyBar.obj
v -1.178356 0.440273 -0.500000
v -1.178356 0.559727 -0.500000
v -1.178356 0.559727 0.500000
v -1.178356 0.440273 0.500000
v 1.181702 0.559727 -0.500000
v 1.181702 0.440273 0.500000
v 1.181702 0.440273 -0.500000
v 1.181702 0.559727 0.500000
v -1.267855 0.440273 -0.500000
v -1.291904 0.440273 -0.475951
v 1.291904 0.440273 -0.475951
v 1.267855 0.440273 -0.500000
v -1.291904 0.559727 -0.475951
v -1.267855 0.559727 -0.500000
v 1.267855 0.559727 -0.500000
v 1.291904 0.559727 -0.475951
v -1.291904 0.440273 0.475951
v -1.267855 0.440273 0.500000
v 1.267855 0.440273 0.500000
v 1.291904 0.440273 0.475951
v -1.267855 0.559727 0.500000
v -1.291904 0.559727 0.475951
v 1.291904 0.559727 0.475951
v 1.267855 0.559727 0.500000
vn 0.000000 -0.707107 -0.707107
vn 0.000000 0.707107 -0.707107
vn 0.000000 0.707107 0.707107
vn 0.000000 -0.707107 0.707107
vn 0.000000 0.707107 -0.707107
vn 0.000000 -0.707107 0.707107
vn 0.000000 -0.707107 -0.707107
vn 0.000000 0.707107 0.707107
vn -0.259688 -0.734510 -0.626943
vn -0.812520 -0.475963 -0.336557
vn 0.812520 -0.475963 -0.336557
vn 0.259688 -0.734510 -0.626943
vn -0.812520 0.475963 -0.336557
vn -0.259688 0.734510 -0.626943
vn 0.259688 0.734510 -0.626943
vn 0.812520 0.475963 -0.336557
vn -0.812520 -0.475963 0.336557
vn -0.259688 -0.734510 0.626943
vn 0.259688 -0.734510 0.626943
vn 0.812520 -0.475963 0.336557
vn -0.259688 0.734510 0.626943
vn -0.812520 0.475963 0.336557
vn 0.812520 0.475963 0.336557
vn 0.259688 0.734510 0.626943
vt 0.945719 0.954423
vt 0.968184 0.977209
vt 0.936370 0.977209
vt 0.915432 0.954423
vt 0.968184 0.589413
vt 0.945719 0.602869
vt 0.915432 0.602869
vt 0.936370 0.589413
vt 0.954347 0.199768
vt 0.945889 0.190885
vt 0.945889 0.560215
vt 0.954347 0.551333
vt 0.954174 0.611323
vt 0.977064 0.598740
vt 0.977064 0.967883
vt 0.954174 0.945968
vt 0.045826 0.611323
vt 0.054281 0.602869
vt 0.054281 0.954423
vt 0.045826 0.945968
vt 0.022936 0.598740
vt 0.022936 0.967883
vt 0.064866 0.977209
vt 0.031816 0.977209
vt 0.085745 0.954423
vt 0.085745 0.602869
vt 0.031816 0.589413
vt 0.064866 0.589413
vt 0.085587 0.190885
vt 0.054111 0.190885
vt 0.054111 0.560215
vt 0.085587 0.560215
vt 0.915590 0.190885
vt 0.915590 0.560215
vt 0.045653 0.199768
vt 0.045653 0.551333
g Cube
usemtl Default
f 15/1/15 12/2/12 7/3/7 5/4/5 
f 19/5/19 24/6/24 8/7/8 6/8/6 
f 20/9/20 19/10/19 12/11/12 11/12/11 
f 23/13/23 20/14/20 11/15/11 16/16/16 
f 22/17/22 21/18/21 14/19/14 13/20/13 
f 17/21/17 22/17/22 13/20/13 10/22/10 
f 1/23/1 9/24/9 14/19/14 2/25/2 
f 3/26/3 21/18/21 18/27/18 4/28/4 
f 4/29/4 18/30/18 9/31/9 1/32/1 
f 3/26/3 8/7/8 5/4/5 2/25/2 
f 7/3/7 1/23/1 2/25/2 5/4/5 
f 8/7/8 3/26/3 4/28/4 6/8/6 
f 6/33/6 4/29/4 1/32/1 7/34/7 
f 8/7/8 24/6/24 15/1/15 5/4/5 
f 16/16/16 11/15/11 12/2/12 15/1/15 
f 14/19/14 9/24/9 10/22/10 13/20/13 
f 20/14/20 23/13/23 24/6/24 19/5/19 
f 18/27/18 21/18/21 22/17/22 17/21/17 
f 24/6/24 23/13/23 16/16/16 15/1/15 
f 21/18/21 3/26/3 2/25/2 14/19/14 
f 18/30/18 17/35/17 10/36/10 9/31/9 
f 19/10/19 6/33/6 7/34/7 12/11/12 
