mtllib Dispensor_ArmBottomObj.mtl
o Dispensor_ArmBottomObj.obj
v -0.094375 -1.163990 -0.096050
v 0.097726 -1.163990 -0.096050
v -0.152005 -0.185507 -0.153681
v 0.155357 -0.185507 -0.153681
v -0.094375 -1.163990 0.096050
v 0.097726 -1.163990 0.096050
v -0.152005 -0.185507 0.153681
v 0.155357 -0.185507 0.153681
v -0.115950 -0.081874 0.113483
v 0.110051 -0.081874 0.113483
v 0.110051 -0.081874 -0.112518
v -0.115950 -0.081874 -0.112518
v -0.115171 -1.163990 0.000000
v 0.118523 -1.163990 0.000000
v 0.188631 -0.185507 0.000000
v -0.185279 -0.185507 0.000000
v 0.134517 -0.081874 0.000483
v -0.140417 -0.081874 0.000483
v 0.001676 -1.164609 -0.111127
v 0.001676 -0.179597 -0.167229
v 0.001678 -0.183379 0.166804
v 0.001676 -1.169599 0.108909
v -0.002948 -0.077711 0.121942
v -0.002950 -0.076042 -0.125887
v 0.001676 -1.271976 0.007139
v -0.002950 0.004009 -0.006657
vn -0.566928 -0.567050 -0.597534
vn 0.566929 -0.567050 -0.597534
vn -0.663874 0.202825 -0.719815
vn 0.656350 0.216374 -0.722764
vn -0.558307 -0.564525 0.607951
vn 0.497494 -0.346671 0.795185
vn -0.647267 0.203320 0.734647
vn 0.639973 0.226434 0.734277
vn -0.415641 0.636915 0.649294
vn 0.418188 0.777832 0.469143
vn 0.429177 0.769459 -0.473012
vn -0.445484 0.758463 -0.475687
vn -0.686184 -0.727417 0.003931
vn 0.728368 -0.640181 0.244228
vn 0.978956 0.204071 0.000040
vn -0.985766 0.168123 0.000036
vn 0.533043 0.846088 -0.000931
vn -0.584436 0.795698 0.159056
vn -0.000000 -0.734126 -0.679013
vn -0.000009 0.164362 -0.986400
vn -0.000031 0.167896 0.985805
vn 0.022939 -0.558926 0.828900
vn -0.009543 0.740391 0.672108
vn -0.000011 0.829939 -0.557854
vn 0.019877 -0.981716 0.189309
vn -0.008684 0.990904 0.134293
vt 0.995049 0.995049
vt 0.995049 0.995049
vt 0.500000 0.995049
vt 0.500000 0.995049
vt 0.995049 0.004950
vt 0.995049 0.004950
vt 0.500000 0.004950
vt 0.500000 0.004950
vt 0.500000 0.500000
vt 0.995049 0.500000
vt 0.995049 0.500000
vt 0.004950 0.004950
vt 0.500000 0.004950
vt 0.500000 0.500000
vt 0.004950 0.500000
vt 0.004950 0.004950
vt 0.004950 0.004950
vt 0.004950 0.500000
vt 0.004950 0.500000
vt 0.995049 0.500000
vt 0.995049 0.004950
vt 0.500000 0.995049
vt 0.995049 0.995049
vt 0.004950 0.995049
vt 0.004950 0.995049
vt 0.004950 0.995049
g Cube
usemtl Default
f 4/1/4 2/2/2 19/3/19 20/4/20 
f 6/5/6 8/6/8 21/7/21 22/8/22 
f 6/5/6 22/8/22 25/9/25 14/10/14 
f 8/6/8 6/5/6 14/10/14 15/11/15 
f 9/12/9 23/13/23 26/14/26 18/15/18 
f 5/16/5 7/17/7 16/18/16 13/19/13 
f 7/17/7 21/7/21 23/13/23 9/12/9 
f 8/6/8 15/11/15 17/20/17 10/21/10 
f 4/1/4 20/4/20 24/22/24 11/23/11 
f 3/24/3 16/18/16 18/15/18 12/25/12 
f 13/19/13 1/26/1 19/3/19 25/9/25 
f 14/10/14 2/2/2 4/1/4 15/11/15 
f 17/20/17 11/23/11 24/22/24 26/14/26 
f 16/18/16 3/24/3 1/26/1 13/19/13 
f 15/11/15 4/1/4 11/23/11 17/20/17 
f 16/18/16 7/17/7 9/12/9 18/15/18 
f 19/3/19 1/26/1 3/24/3 20/4/20 
f 21/7/21 7/17/7 5/16/5 22/8/22 
f 22/8/22 5/16/5 13/19/13 25/9/25 
f 23/13/23 10/21/10 17/20/17 26/14/26 
f 21/7/21 8/6/8 10/21/10 23/13/23 
f 20/4/20 3/24/3 12/25/12 24/22/24 
f 19/3/19 2/2/2 14/10/14 25/9/25 
f 24/22/24 12/25/12 18/15/18 26/14/26 
